<svg version="1.1" id="Layer_1" xmlns="http://www.w3.org/2000/svg" xmlns:xlink="http://www.w3.org/1999/xlink" x="0px" y="0px"
	 width="100%" viewBox="0 0 1920 1080" enable-background="new 0 0 1920 1080" xml:space="preserve">
<path fill="#00000000" opacity="1.000000" stroke="none" 
	d="
M1746.000000,1081.000000 
	C1164.000122,1081.000000 582.500183,1081.000000 1.000234,1081.000000 
	C1.000156,721.000183 1.000156,361.000336 1.000078,1.000379 
	C640.999695,1.000253 1280.999390,1.000253 1920.999268,1.000126 
	C1920.999512,360.999634 1920.999512,720.999268 1920.999756,1080.999512 
	C1862.833374,1081.000000 1804.666626,1081.000000 1746.000000,1081.000000 
M556.958008,558.762573 
	C558.085999,562.847900 559.213989,566.933289 560.256226,570.707947 
	C565.096497,570.707947 569.354736,570.707947 573.595215,570.707947 
	C573.595215,542.695862 573.595215,514.985229 573.595215,487.338745 
	C569.584900,487.338745 565.865784,487.338745 561.784058,487.338745 
	C561.784058,502.947266 561.784058,518.210632 561.784058,533.474060 
	C561.547363,533.502686 561.310669,533.531311 561.073975,533.559937 
	C556.884888,518.104187 552.695740,502.648438 548.551208,487.357056 
	C542.781799,487.357056 537.393127,487.357056 532.291077,487.357056 
	C532.291077,515.443481 532.291077,543.163818 532.291077,570.790039 
	C536.237732,570.790039 539.847107,570.790039 544.012390,570.790039 
	C544.012390,551.867493 544.012390,533.155884 544.012390,514.444214 
	C544.306702,514.418762 544.601013,514.393250 544.895325,514.367798 
	C548.860718,528.899597 552.826050,543.431458 556.958008,558.762573 
M844.385376,571.003784 
	C845.807678,570.906555 847.229919,570.809326 848.875366,570.696899 
	C848.875366,558.687744 848.875366,547.085083 848.875366,535.345215 
	C853.974365,535.345215 858.812378,535.345215 864.065430,535.345215 
	C864.065430,547.402222 864.065430,559.121887 864.065430,570.769897 
	C868.592896,570.769897 872.696960,570.769897 876.916748,570.769897 
	C876.916748,542.821899 876.916748,515.108093 876.916748,487.251282 
	C872.492798,487.251282 868.276245,487.251282 863.693298,487.251282 
	C863.693298,499.247894 863.693298,510.992432 863.693298,522.722107 
	C858.562012,522.722107 853.803955,522.722107 848.637024,522.722107 
	C848.637024,510.716156 848.637024,498.979431 848.637024,487.222900 
	C844.127502,487.222900 840.034424,487.222900 835.801575,487.222900 
	C835.801575,515.197388 835.801575,542.944824 835.801575,571.003845 
	C838.489746,571.003845 840.965088,571.003845 844.385376,571.003784 
M1025.586548,568.094238 
	C1026.309570,569.063171 1026.967041,570.800659 1027.766724,570.868774 
	C1031.340698,571.173035 1034.955078,571.001099 1038.971802,571.001099 
	C1038.971802,558.679871 1038.971802,546.961548 1038.971802,535.279297 
	C1044.154663,535.279297 1048.887939,535.279297 1053.986206,535.279297 
	C1053.986206,547.299866 1053.986206,559.049011 1053.986206,570.643311 
	C1058.595459,570.643311 1062.828369,570.643311 1066.779175,570.643311 
	C1066.779175,542.569763 1066.779175,514.857300 1066.779175,487.189026 
	C1062.323608,487.189026 1058.211792,487.189026 1053.775146,487.189026 
	C1053.775146,499.150208 1053.775146,510.923065 1053.775146,522.762817 
	C1048.678711,522.762817 1043.912964,522.762817 1038.729248,522.762817 
	C1038.729248,510.804901 1038.729248,499.073059 1038.729248,487.174408 
	C1034.205933,487.174408 1030.104614,487.174408 1025.586060,487.174408 
	C1025.586060,513.942505 1025.586060,540.551697 1025.586548,568.094238 
M748.151672,541.835815 
	C748.660278,551.505859 749.168945,561.175903 749.667297,570.651367 
	C754.772888,570.651367 758.973450,570.651367 762.098633,570.651367 
	C762.098633,563.164429 762.064209,556.034729 762.108032,548.905457 
	C762.154175,541.394043 761.373230,534.243530 755.291321,530.611633 
	C757.513550,526.313477 760.577820,522.642273 761.235657,518.581177 
	C762.202881,512.610107 761.966797,506.304108 761.300110,500.244537 
	C760.499878,492.972290 755.827271,488.226959 748.531189,487.696899 
	C740.016113,487.078278 731.421753,487.552368 722.877563,487.552368 
	C722.877563,515.337891 722.877563,543.064209 722.877563,570.740967 
	C727.276611,570.740967 731.374451,570.740967 735.855713,570.740967 
	C735.855713,559.399719 735.855713,548.316650 735.855713,536.904480 
	C740.617493,537.042542 745.342041,535.735718 748.151672,541.835815 
M1439.830566,486.105835 
	C1428.200562,488.187164 1423.362671,493.345886 1422.605835,505.099365 
	C1422.231689,510.908081 1422.388672,516.756287 1422.434448,522.585632 
	C1422.520630,533.575562 1422.337769,544.585266 1422.958984,555.547546 
	C1423.433594,563.923950 1428.439697,569.248108 1436.072021,571.177368 
	C1451.330811,575.034424 1462.014404,567.382141 1462.465332,551.604675 
	C1462.893433,536.622559 1462.843140,521.612305 1462.490723,506.626434 
	C1462.151123,492.185822 1455.296509,486.011627 1439.830566,486.105835 
M967.765076,548.350952 
	C967.791565,533.867859 967.722900,519.383606 967.899353,504.902374 
	C967.956177,500.234222 970.542175,497.897614 974.708923,498.089508 
	C978.920654,498.283569 981.043457,500.663055 981.143188,504.808990 
	C981.222839,508.120178 981.159241,511.434814 981.159241,514.936707 
	C985.591309,514.936707 989.645813,514.936707 994.170898,514.936707 
	C993.850830,510.136566 993.929077,505.610840 993.181152,501.226044 
	C991.368958,490.601959 984.334229,485.554169 972.695862,486.048981 
	C962.364929,486.488190 955.447571,492.295563 954.964233,502.605927 
	C954.263367,517.556213 954.521912,532.552795 954.448792,547.530029 
	C954.434204,550.517334 954.565369,553.534668 954.978699,556.489258 
	C956.308655,565.995544 962.826538,571.576904 972.793884,571.955627 
	C984.036987,572.382874 991.917175,567.558228 992.864380,557.654358 
	C993.913025,546.689392 993.104126,535.546753 993.104126,524.436401 
	C987.408081,524.436401 981.516663,524.436401 975.575562,524.436401 
	C975.575562,528.467285 975.575562,532.176086 975.575562,535.855896 
	C977.626099,536.118042 979.356262,536.339294 981.252869,536.581787 
	C981.252869,541.059021 981.266357,545.213013 981.249939,549.366882 
	C981.219116,557.144409 979.442810,559.884033 974.475647,559.861938 
	C969.555908,559.840149 967.889099,557.218262 967.765076,548.350952 
M1320.378174,493.523987 
	C1320.378174,491.430878 1320.378174,489.337769 1320.378174,487.334045 
	C1315.563721,487.334045 1311.341797,487.334045 1306.733887,487.334045 
	C1306.733887,499.405212 1306.733887,511.145081 1306.733887,522.667725 
	C1301.593750,522.667725 1296.856323,522.667725 1291.736572,522.667725 
	C1291.736572,510.597382 1291.736572,498.856750 1291.736572,487.288635 
	C1287.248291,487.288635 1283.157227,487.288635 1279.159424,487.288635 
	C1279.159424,515.301636 1279.159424,543.025208 1279.159424,570.759521 
	C1283.532227,570.759521 1287.613647,570.759521 1292.081299,570.759521 
	C1292.081299,558.785645 1292.081299,547.046875 1292.081299,535.239014 
	C1297.216064,535.239014 1301.953125,535.239014 1307.079224,535.239014 
	C1307.079224,547.211426 1307.079224,558.951416 1307.079224,570.726685 
	C1311.724609,570.726685 1315.969116,570.726685 1320.378174,570.726685 
	C1320.378174,545.143250 1320.378174,519.832825 1320.378174,493.523987 
M650.978760,529.500000 
	C650.993652,537.324036 650.833679,545.153381 651.067810,552.970825 
	C651.359009,562.693115 656.175598,569.004700 664.469910,571.133789 
	C680.103149,575.146667 690.896301,566.905457 691.003723,550.728516 
	C691.099915,536.246033 691.025574,521.762451 691.020630,507.279358 
	C691.020325,506.281006 691.010803,505.279846 690.938904,504.284760 
	C690.093262,492.579620 682.852661,485.998810 670.883606,486.042084 
	C658.988953,486.085083 651.624084,492.773407 651.108643,504.531708 
	C650.758972,512.507690 651.001160,520.509644 650.978760,529.500000 
M1351.978760,514.509277 
	C1351.993652,527.327820 1351.792114,540.151367 1352.087158,552.963440 
	C1352.356812,564.671448 1359.464966,571.585205 1370.874512,571.947876 
	C1383.081543,572.335938 1391.265137,566.238892 1391.703491,554.719177 
	C1392.354980,537.599609 1392.334595,520.420044 1391.709351,503.298553 
	C1391.300537,492.101929 1383.496948,486.001343 1371.887207,486.042084 
	C1360.353760,486.082550 1353.215942,492.329529 1352.154419,503.533417 
	C1351.841431,506.836426 1352.023438,510.186340 1351.978760,514.509277 
M1233.614990,486.690430 
	C1217.634644,483.714111 1208.318970,491.194489 1208.175293,507.345703 
	C1208.046387,521.832947 1208.113892,536.322388 1208.184692,550.810425 
	C1208.196045,553.122314 1208.511108,555.466187 1208.973633,557.736633 
	C1210.831421,566.857361 1217.295532,571.814575 1227.337402,571.964172 
	C1237.779663,572.119812 1244.958496,567.436279 1246.648804,558.333801 
	C1247.749512,552.406799 1247.539429,546.236267 1247.927490,539.997192 
	C1243.146118,539.997192 1239.216553,539.997192 1234.988525,539.997192 
	C1234.988525,544.555298 1235.080078,548.877991 1234.962280,553.194885 
	C1234.848877,557.350525 1232.568115,559.738525 1228.412720,559.820740 
	C1224.274902,559.902466 1221.658447,557.678345 1221.627441,553.488098 
	C1221.506470,537.175537 1221.500610,520.860962 1221.625732,504.548462 
	C1221.657104,500.449066 1224.078979,498.043579 1228.305786,498.093750 
	C1232.811035,498.147186 1234.869629,500.827789 1234.986938,505.121582 
	C1235.076416,508.396790 1235.004761,511.676392 1235.004761,514.969727 
	C1239.473267,514.969727 1243.412842,514.969727 1247.813110,514.969727 
	C1247.568726,510.381989 1247.604370,506.052795 1247.052856,501.799713 
	C1246.069336,494.214630 1242.175903,488.847046 1233.614990,486.690430 
M433.814972,545.999573 
	C432.320801,538.096802 427.597778,532.214966 422.031494,526.771667 
	C418.238373,523.062378 413.970245,519.516724 411.325317,515.060486 
	C409.317383,511.677490 408.978729,506.981903 408.927307,502.857574 
	C408.883240,499.323334 412.123230,497.410522 415.273132,498.274200 
	C417.507843,498.886963 419.689545,501.168915 420.982513,503.267853 
	C421.994141,504.910126 421.605164,507.415131 421.842499,509.572998 
	C425.979889,509.572998 429.876282,509.572998 434.206329,509.572998 
	C433.917755,506.458984 433.902435,503.624786 433.358124,500.896118 
	C431.326569,490.712097 424.992706,485.902435 414.102295,486.040619 
	C403.615387,486.173676 397.647675,491.141846 395.657623,501.295654 
	C393.466125,512.477234 397.468781,521.505432 405.237457,529.259216 
	C409.004608,533.019104 413.426239,536.340820 416.333527,540.677551 
	C418.763885,544.302795 420.101837,549.029785 420.661957,553.429565 
	C421.164764,557.379211 418.228271,559.827637 414.042084,559.834473 
	C410.107239,559.840881 407.844116,557.653625 407.381622,553.816406 
	C407.069672,551.228210 407.101715,548.598511 406.983612,546.067139 
	C402.760040,546.067139 398.863647,546.067139 395.027649,546.067139 
	C395.027649,549.361694 394.788452,552.373352 395.073181,555.334595 
	C395.875763,563.681580 400.544739,569.258423 408.012299,571.158997 
	C423.521606,575.106445 434.085022,566.887207 434.059326,550.880676 
	C434.057190,549.550110 433.964844,548.219666 433.814972,545.999573 
M1152.965332,508.160858 
	C1152.953003,507.161957 1152.913696,506.162567 1152.933105,505.164276 
	C1153.016479,500.870667 1154.874878,498.067230 1159.476562,498.090485 
	C1164.115234,498.113953 1165.792358,501.082916 1165.967163,505.281586 
	C1166.026978,506.718536 1166.109375,508.154572 1166.177734,509.519409 
	C1170.438354,509.519409 1174.321777,509.519409 1178.645996,509.519409 
	C1178.330933,506.013367 1178.368286,502.823822 1177.709839,499.785065 
	C1175.815918,491.043640 1169.512451,486.290375 1159.975952,486.045776 
	C1149.526489,485.777771 1143.042725,489.960236 1140.698608,499.009613 
	C1137.842529,510.035492 1140.531738,519.757141 1148.491943,527.932373 
	C1152.440186,531.987305 1156.602783,535.836243 1160.488525,539.948364 
	C1164.211548,543.888428 1165.928833,548.590576 1165.168823,554.120178 
	C1164.645386,557.929871 1162.368896,559.733459 1158.791138,559.812012 
	C1154.993408,559.895386 1152.332397,558.120300 1151.998413,554.064148 
	C1151.782959,551.446838 1151.957886,548.797424 1151.957886,546.146606 
	C1147.417236,546.146606 1143.380859,546.146606 1138.861694,546.146606 
	C1139.270020,550.368164 1139.338379,554.216431 1140.062988,557.936890 
	C1141.788330,566.795288 1148.319336,571.733887 1158.086670,571.958984 
	C1168.590820,572.201050 1175.598267,567.595764 1177.712524,558.628357 
	C1179.750732,549.984009 1178.913696,541.598755 1173.181396,534.480896 
	C1169.546753,529.967773 1164.917114,526.255554 1161.286987,521.739319 
	C1158.132080,517.814270 1155.754395,513.264465 1152.965332,508.160858 
M495.361145,571.003845 
	C497.120331,571.003845 498.879547,571.003845 500.520508,571.003845 
	C500.520508,566.616333 500.520508,562.891602 500.520508,558.877930 
	C492.912262,558.877930 485.642334,558.877930 478.335876,558.877930 
	C478.335876,550.551758 478.335876,542.528870 478.335876,534.091797 
	C484.403259,534.091797 490.139191,534.091797 495.867554,534.091797 
	C495.867554,530.051697 495.867554,526.438049 495.867554,522.415649 
	C489.925781,522.415649 484.172729,522.415649 478.243530,522.415649 
	C478.243530,514.440552 478.243530,506.879150 478.243530,498.837372 
	C485.864227,498.837372 493.257324,498.837372 500.522217,498.837372 
	C500.522217,494.622009 500.522217,490.896393 500.522217,487.324585 
	C488.442871,487.324585 476.704865,487.324585 465.178040,487.324585 
	C465.178040,515.365784 465.178040,543.077881 465.178040,571.003845 
	C475.122620,571.003845 484.757751,571.003845 495.361145,571.003845 
M1522.421509,571.001770 
	C1524.524536,571.001770 1526.627563,571.001770 1528.709961,571.001770 
	C1528.709961,566.720520 1528.709961,562.986145 1528.709961,558.751587 
	C1521.397949,558.751587 1514.347656,558.751587 1506.901855,558.751587 
	C1506.901855,534.544983 1506.901855,510.849182 1506.901855,487.296722 
	C1502.393921,487.296722 1498.315796,487.296722 1494.294678,487.296722 
	C1494.294678,515.303772 1494.294678,543.011414 1494.294678,571.001770 
	C1503.517090,571.001770 1512.476440,571.001770 1522.421509,571.001770 
M619.507019,541.500366 
	C619.507019,523.408081 619.507019,505.315765 619.507019,487.212860 
	C614.864624,487.212860 610.759033,487.212860 606.435547,487.212860 
	C606.435547,515.133850 606.435547,542.830566 606.435547,570.699707 
	C610.826355,570.699707 615.018555,570.699707 619.507019,570.699707 
	C619.507019,561.094055 619.507019,551.797241 619.507019,541.500366 
M922.999939,500.507935 
	C922.999939,496.076508 922.999939,491.645111 922.999939,487.236145 
	C918.356689,487.236145 914.272400,487.236145 910.064453,487.236145 
	C910.064453,515.175171 910.064453,542.877869 910.064453,570.676331 
	C914.461182,570.676331 918.658508,570.676331 922.999939,570.676331 
	C922.999939,547.403564 922.999939,524.454163 922.999939,500.507935 
z"/>
<path fill="#FFFFFFAA" opacity="1.000000" stroke="none" 
	d="
M556.874756,558.362915 
	C552.826050,543.431458 548.860718,528.899597 544.895325,514.367798 
	C544.601013,514.393250 544.306702,514.418762 544.012390,514.444214 
	C544.012390,533.155884 544.012390,551.867493 544.012390,570.790039 
	C539.847107,570.790039 536.237732,570.790039 532.291077,570.790039 
	C532.291077,543.163818 532.291077,515.443481 532.291077,487.357056 
	C537.393127,487.357056 542.781799,487.357056 548.551208,487.357056 
	C552.695740,502.648438 556.884888,518.104187 561.073975,533.559937 
	C561.310669,533.531311 561.547363,533.502686 561.784058,533.474060 
	C561.784058,518.210632 561.784058,502.947266 561.784058,487.338745 
	C565.865784,487.338745 569.584900,487.338745 573.595215,487.338745 
	C573.595215,514.985229 573.595215,542.695862 573.595215,570.707947 
	C569.354736,570.707947 565.096497,570.707947 560.256226,570.707947 
	C559.213989,566.933289 558.085999,562.847900 556.874756,558.362915 
z"/>
<path fill="#FFFFFFAA" opacity="1.000000" stroke="none" 
	d="
M843.912903,571.003784 
	C840.965088,571.003845 838.489746,571.003845 835.801575,571.003845 
	C835.801575,542.944824 835.801575,515.197388 835.801575,487.222900 
	C840.034424,487.222900 844.127502,487.222900 848.637024,487.222900 
	C848.637024,498.979431 848.637024,510.716156 848.637024,522.722107 
	C853.803955,522.722107 858.562012,522.722107 863.693298,522.722107 
	C863.693298,510.992432 863.693298,499.247894 863.693298,487.251282 
	C868.276245,487.251282 872.492798,487.251282 876.916748,487.251282 
	C876.916748,515.108093 876.916748,542.821899 876.916748,570.769897 
	C872.696960,570.769897 868.592896,570.769897 864.065430,570.769897 
	C864.065430,559.121887 864.065430,547.402222 864.065430,535.345215 
	C858.812378,535.345215 853.974365,535.345215 848.875366,535.345215 
	C848.875366,547.085083 848.875366,558.687744 848.875366,570.696899 
	C847.229919,570.809326 845.807678,570.906555 843.912903,571.003784 
z"/>
<path fill="#FFFFFFAA" opacity="1.000000" stroke="none" 
	d="
M1025.586304,567.627563 
	C1025.586060,540.551697 1025.586060,513.942505 1025.586060,487.174408 
	C1030.104614,487.174408 1034.205933,487.174408 1038.729248,487.174408 
	C1038.729248,499.073059 1038.729248,510.804901 1038.729248,522.762817 
	C1043.912964,522.762817 1048.678711,522.762817 1053.775146,522.762817 
	C1053.775146,510.923065 1053.775146,499.150208 1053.775146,487.189026 
	C1058.211792,487.189026 1062.323608,487.189026 1066.779175,487.189026 
	C1066.779175,514.857300 1066.779175,542.569763 1066.779175,570.643311 
	C1062.828369,570.643311 1058.595459,570.643311 1053.986206,570.643311 
	C1053.986206,559.049011 1053.986206,547.299866 1053.986206,535.279297 
	C1048.887939,535.279297 1044.154663,535.279297 1038.971802,535.279297 
	C1038.971802,546.961548 1038.971802,558.679871 1038.971802,571.001099 
	C1034.955078,571.001099 1031.340698,571.173035 1027.766724,570.868774 
	C1026.967041,570.800659 1026.309570,569.063171 1025.586304,567.627563 
z"/>
<path fill="#FFFFFFAA" opacity="1.000000" stroke="none" 
	d="
M748.042847,541.428284 
	C745.342041,535.735718 740.617493,537.042542 735.855713,536.904480 
	C735.855713,548.316650 735.855713,559.399719 735.855713,570.740967 
	C731.374451,570.740967 727.276611,570.740967 722.877563,570.740967 
	C722.877563,543.064209 722.877563,515.337891 722.877563,487.552368 
	C731.421753,487.552368 740.016113,487.078278 748.531189,487.696899 
	C755.827271,488.226959 760.499878,492.972290 761.300110,500.244537 
	C761.966797,506.304108 762.202881,512.610107 761.235657,518.581177 
	C760.577820,522.642273 757.513550,526.313477 755.291321,530.611633 
	C761.373230,534.243530 762.154175,541.394043 762.108032,548.905457 
	C762.064209,556.034729 762.098633,563.164429 762.098633,570.651367 
	C758.973450,570.651367 754.772888,570.651367 749.667297,570.651367 
	C749.168945,561.175903 748.660278,551.505859 748.042847,541.428284 
M747.944519,521.063049 
	C748.264099,517.275757 748.821899,513.490601 748.857056,509.700653 
	C748.949036,499.777649 746.036133,497.570251 736.195679,499.568390 
	C736.195679,508.002838 736.195679,516.392334 736.195679,526.324036 
	C740.564880,524.584412 744.070801,523.188416 747.944519,521.063049 
z"/>
<path fill="#FFFFFFAA" opacity="1.000000" stroke="none" 
	d="
M1440.275024,486.081757 
	C1455.296509,486.011627 1462.151123,492.185822 1462.490723,506.626434 
	C1462.843140,521.612305 1462.893433,536.622559 1462.465332,551.604675 
	C1462.014404,567.382141 1451.330811,575.034424 1436.072021,571.177368 
	C1428.439697,569.248108 1423.433594,563.923950 1422.958984,555.547546 
	C1422.337769,544.585266 1422.520630,533.575562 1422.434448,522.585632 
	C1422.388672,516.756287 1422.231689,510.908081 1422.605835,505.099365 
	C1423.362671,493.345886 1428.200562,488.187164 1440.275024,486.081757 
M1449.092651,553.936523 
	C1449.128296,537.809082 1449.240234,521.681213 1449.155273,505.554443 
	C1449.128296,500.438263 1446.736816,498.043427 1442.474731,498.063599 
	C1438.208130,498.083801 1435.885864,500.471222 1435.849976,505.619507 
	C1435.741089,521.248840 1435.814697,536.879395 1435.815796,552.509460 
	C1435.816040,556.227966 1437.110596,559.162720 1441.115112,559.788818 
	C1445.020264,560.399353 1447.998535,559.048645 1449.092651,553.936523 
z"/>
<path fill="#FFFFFFAA" opacity="1.000000" stroke="none" 
	d="
M967.765076,548.828552 
	C967.889099,557.218262 969.555908,559.840149 974.475647,559.861938 
	C979.442810,559.884033 981.219116,557.144409 981.249939,549.366882 
	C981.266357,545.213013 981.252869,541.059021 981.252869,536.581787 
	C979.356262,536.339294 977.626099,536.118042 975.575562,535.855896 
	C975.575562,532.176086 975.575562,528.467285 975.575562,524.436401 
	C981.516663,524.436401 987.408081,524.436401 993.104126,524.436401 
	C993.104126,535.546753 993.913025,546.689392 992.864380,557.654358 
	C991.917175,567.558228 984.036987,572.382874 972.793884,571.955627 
	C962.826538,571.576904 956.308655,565.995544 954.978699,556.489258 
	C954.565369,553.534668 954.434204,550.517334 954.448792,547.530029 
	C954.521912,532.552795 954.263367,517.556213 954.964233,502.605927 
	C955.447571,492.295563 962.364929,486.488190 972.695862,486.048981 
	C984.334229,485.554169 991.368958,490.601959 993.181152,501.226044 
	C993.929077,505.610840 993.850830,510.136566 994.170898,514.936707 
	C989.645813,514.936707 985.591309,514.936707 981.159241,514.936707 
	C981.159241,511.434814 981.222839,508.120178 981.143188,504.808990 
	C981.043457,500.663055 978.920654,498.283569 974.708923,498.089508 
	C970.542175,497.897614 967.956177,500.234222 967.899353,504.902374 
	C967.722900,519.383606 967.791565,533.867859 967.765076,548.828552 
z"/>
<path fill="#FFFFFFAA" opacity="1.000000" stroke="none" 
	d="
M1320.378174,494.023193 
	C1320.378174,519.832825 1320.378174,545.143250 1320.378174,570.726685 
	C1315.969116,570.726685 1311.724609,570.726685 1307.079224,570.726685 
	C1307.079224,558.951416 1307.079224,547.211426 1307.079224,535.239014 
	C1301.953125,535.239014 1297.216064,535.239014 1292.081299,535.239014 
	C1292.081299,547.046875 1292.081299,558.785645 1292.081299,570.759521 
	C1287.613647,570.759521 1283.532227,570.759521 1279.159424,570.759521 
	C1279.159424,543.025208 1279.159424,515.301636 1279.159424,487.288635 
	C1283.157227,487.288635 1287.248291,487.288635 1291.736572,487.288635 
	C1291.736572,498.856750 1291.736572,510.597382 1291.736572,522.667725 
	C1296.856323,522.667725 1301.593750,522.667725 1306.733887,522.667725 
	C1306.733887,511.145081 1306.733887,499.405212 1306.733887,487.334045 
	C1311.341797,487.334045 1315.563721,487.334045 1320.378174,487.334045 
	C1320.378174,489.337769 1320.378174,491.430878 1320.378174,494.023193 
z"/>
<path fill="#FFFFFFAA" opacity="1.000000" stroke="none" 
	d="
M650.978699,529.000000 
	C651.001160,520.509644 650.758972,512.507690 651.108643,504.531708 
	C651.624084,492.773407 658.988953,486.085083 670.883606,486.042084 
	C682.852661,485.998810 690.093262,492.579620 690.938904,504.284760 
	C691.010803,505.279846 691.020325,506.281006 691.020630,507.279358 
	C691.025574,521.762451 691.099915,536.246033 691.003723,550.728516 
	C690.896301,566.905457 680.103149,575.146667 664.469910,571.133789 
	C656.175598,569.004700 651.359009,562.693115 651.067810,552.970825 
	C650.833679,545.153381 650.993652,537.324036 650.978699,529.000000 
M664.094727,538.496643 
	C664.129089,543.489136 663.960876,548.493896 664.261963,553.470215 
	C664.502869,557.452087 666.741821,559.947449 671.013489,559.945618 
	C675.290649,559.943726 677.692688,557.424011 677.736450,553.457886 
	C677.916565,537.149841 677.916992,520.837524 677.734924,504.529480 
	C677.690613,500.558929 675.271057,498.053040 670.997864,498.058075 
	C666.725159,498.063110 664.711182,500.576782 664.216858,504.546295 
	C664.053223,505.860748 664.100464,507.204956 664.099304,508.535614 
	C664.090881,518.189697 664.094788,527.843811 664.094727,538.496643 
z"/>
<path fill="#FFFFFFAA" opacity="1.000000" stroke="none" 
	d="
M1351.978760,514.012024 
	C1352.023438,510.186340 1351.841431,506.836426 1352.154419,503.533417 
	C1353.215942,492.329529 1360.353760,486.082550 1371.887207,486.042084 
	C1383.496948,486.001343 1391.300537,492.101929 1391.709351,503.298553 
	C1392.334595,520.420044 1392.354980,537.599609 1391.703491,554.719177 
	C1391.265137,566.238892 1383.081543,572.335938 1370.874512,571.947876 
	C1359.464966,571.585205 1352.356812,564.671448 1352.087158,552.963440 
	C1351.792114,540.151367 1351.993652,527.327820 1351.978760,514.012024 
M1365.094604,535.499390 
	C1365.129028,541.490540 1364.969116,547.491394 1365.265991,553.469543 
	C1365.463623,557.449890 1367.740479,559.946716 1372.012207,559.945618 
	C1376.289307,559.944519 1378.692505,557.425354 1378.736450,553.459351 
	C1378.916870,537.151428 1378.916992,520.839172 1378.735107,504.531219 
	C1378.690918,500.560852 1376.272949,498.053986 1371.999634,498.058075 
	C1367.727295,498.062134 1365.711792,500.574768 1365.216919,504.544403 
	C1365.053101,505.858795 1365.100464,507.203064 1365.099121,508.533691 
	C1365.090210,517.189026 1365.094604,525.844360 1365.094604,535.499390 
z"/>
<path fill="#FFFFFFAA" opacity="1.000000" stroke="none" 
	d="
M1234.020142,486.777130 
	C1242.175903,488.847046 1246.069336,494.214630 1247.052856,501.799713 
	C1247.604370,506.052795 1247.568726,510.381989 1247.813110,514.969727 
	C1243.412842,514.969727 1239.473267,514.969727 1235.004761,514.969727 
	C1235.004761,511.676392 1235.076416,508.396790 1234.986938,505.121582 
	C1234.869629,500.827789 1232.811035,498.147186 1228.305786,498.093750 
	C1224.078979,498.043579 1221.657104,500.449066 1221.625732,504.548462 
	C1221.500610,520.860962 1221.506470,537.175537 1221.627441,553.488098 
	C1221.658447,557.678345 1224.274902,559.902466 1228.412720,559.820740 
	C1232.568115,559.738525 1234.848877,557.350525 1234.962280,553.194885 
	C1235.080078,548.877991 1234.988525,544.555298 1234.988525,539.997192 
	C1239.216553,539.997192 1243.146118,539.997192 1247.927490,539.997192 
	C1247.539429,546.236267 1247.749512,552.406799 1246.648804,558.333801 
	C1244.958496,567.436279 1237.779663,572.119812 1227.337402,571.964172 
	C1217.295532,571.814575 1210.831421,566.857361 1208.973633,557.736633 
	C1208.511108,555.466187 1208.196045,553.122314 1208.184692,550.810425 
	C1208.113892,536.322388 1208.046387,521.832947 1208.175293,507.345703 
	C1208.318970,491.194489 1217.634644,483.714111 1234.020142,486.777130 
z"/>
<path fill="#FFFFFFAA" opacity="1.000000" stroke="none" 
	d="
M433.864685,546.444336 
	C433.964844,548.219666 434.057190,549.550110 434.059326,550.880676 
	C434.085022,566.887207 423.521606,575.106445 408.012299,571.158997 
	C400.544739,569.258423 395.875763,563.681580 395.073181,555.334595 
	C394.788452,552.373352 395.027649,549.361694 395.027649,546.067139 
	C398.863647,546.067139 402.760040,546.067139 406.983612,546.067139 
	C407.101715,548.598511 407.069672,551.228210 407.381622,553.816406 
	C407.844116,557.653625 410.107239,559.840881 414.042084,559.834473 
	C418.228271,559.827637 421.164764,557.379211 420.661957,553.429565 
	C420.101837,549.029785 418.763885,544.302795 416.333527,540.677551 
	C413.426239,536.340820 409.004608,533.019104 405.237457,529.259216 
	C397.468781,521.505432 393.466125,512.477234 395.657623,501.295654 
	C397.647675,491.141846 403.615387,486.173676 414.102295,486.040619 
	C424.992706,485.902435 431.326569,490.712097 433.358124,500.896118 
	C433.902435,503.624786 433.917755,506.458984 434.206329,509.572998 
	C429.876282,509.572998 425.979889,509.572998 421.842499,509.572998 
	C421.605164,507.415131 421.994141,504.910126 420.982513,503.267853 
	C419.689545,501.168915 417.507843,498.886963 415.273132,498.274200 
	C412.123230,497.410522 408.883240,499.323334 408.927307,502.857574 
	C408.978729,506.981903 409.317383,511.677490 411.325317,515.060486 
	C413.970245,519.516724 418.238373,523.062378 422.031494,526.771667 
	C427.597778,532.214966 432.320801,538.096802 433.864685,546.444336 
z"/>
<path fill="#FFFFFFAA" opacity="1.000000" stroke="none" 
	d="
M1152.999268,508.575806 
	C1155.754395,513.264465 1158.132080,517.814270 1161.286987,521.739319 
	C1164.917114,526.255554 1169.546753,529.967773 1173.181396,534.480896 
	C1178.913696,541.598755 1179.750732,549.984009 1177.712524,558.628357 
	C1175.598267,567.595764 1168.590820,572.201050 1158.086670,571.958984 
	C1148.319336,571.733887 1141.788330,566.795288 1140.062988,557.936890 
	C1139.338379,554.216431 1139.270020,550.368164 1138.861694,546.146606 
	C1143.380859,546.146606 1147.417236,546.146606 1151.957886,546.146606 
	C1151.957886,548.797424 1151.782959,551.446838 1151.998413,554.064148 
	C1152.332397,558.120300 1154.993408,559.895386 1158.791138,559.812012 
	C1162.368896,559.733459 1164.645386,557.929871 1165.168823,554.120178 
	C1165.928833,548.590576 1164.211548,543.888428 1160.488525,539.948364 
	C1156.602783,535.836243 1152.440186,531.987305 1148.491943,527.932373 
	C1140.531738,519.757141 1137.842529,510.035492 1140.698608,499.009613 
	C1143.042725,489.960236 1149.526489,485.777771 1159.975952,486.045776 
	C1169.512451,486.290375 1175.815918,491.043640 1177.709839,499.785065 
	C1178.368286,502.823822 1178.330933,506.013367 1178.645996,509.519409 
	C1174.321777,509.519409 1170.438354,509.519409 1166.177734,509.519409 
	C1166.109375,508.154572 1166.026978,506.718536 1165.967163,505.281586 
	C1165.792358,501.082916 1164.115234,498.113953 1159.476562,498.090485 
	C1154.874878,498.067230 1153.016479,500.870667 1152.933105,505.164276 
	C1152.913696,506.162567 1152.953003,507.161957 1152.999268,508.575806 
z"/>
<path fill="#FFFFFFAA" opacity="1.000000" stroke="none" 
	d="
M494.877014,571.003845 
	C484.757751,571.003845 475.122620,571.003845 465.178040,571.003845 
	C465.178040,543.077881 465.178040,515.365784 465.178040,487.324585 
	C476.704865,487.324585 488.442871,487.324585 500.522217,487.324585 
	C500.522217,490.896393 500.522217,494.622009 500.522217,498.837372 
	C493.257324,498.837372 485.864227,498.837372 478.243530,498.837372 
	C478.243530,506.879150 478.243530,514.440552 478.243530,522.415649 
	C484.172729,522.415649 489.925781,522.415649 495.867554,522.415649 
	C495.867554,526.438049 495.867554,530.051697 495.867554,534.091797 
	C490.139191,534.091797 484.403259,534.091797 478.335876,534.091797 
	C478.335876,542.528870 478.335876,550.551758 478.335876,558.877930 
	C485.642334,558.877930 492.912262,558.877930 500.520508,558.877930 
	C500.520508,562.891602 500.520508,566.616333 500.520508,571.003845 
	C498.879547,571.003845 497.120331,571.003845 494.877014,571.003845 
z"/>
<path fill="#FFFFFFAA" opacity="1.000000" stroke="none" 
	d="
M1521.928711,571.001770 
	C1512.476440,571.001770 1503.517090,571.001770 1494.294678,571.001770 
	C1494.294678,543.011414 1494.294678,515.303772 1494.294678,487.296722 
	C1498.315796,487.296722 1502.393921,487.296722 1506.901855,487.296722 
	C1506.901855,510.849182 1506.901855,534.544983 1506.901855,558.751587 
	C1514.347656,558.751587 1521.397949,558.751587 1528.709961,558.751587 
	C1528.709961,562.986145 1528.709961,566.720520 1528.709961,571.001770 
	C1526.627563,571.001770 1524.524536,571.001770 1521.928711,571.001770 
z"/>
<path fill="#FFFFFFAA" opacity="1.000000" stroke="none" 
	d="
M619.507019,542.000366 
	C619.507019,551.797241 619.507019,561.094055 619.507019,570.699707 
	C615.018555,570.699707 610.826355,570.699707 606.435547,570.699707 
	C606.435547,542.830566 606.435547,515.133850 606.435547,487.212860 
	C610.759033,487.212860 614.864624,487.212860 619.507019,487.212860 
	C619.507019,505.315765 619.507019,523.408081 619.507019,542.000366 
z"/>
<path fill="#FFFFFFAA" opacity="1.000000" stroke="none" 
	d="
M922.999939,501.006317 
	C922.999939,524.454163 922.999939,547.403564 922.999939,570.676331 
	C918.658508,570.676331 914.461182,570.676331 910.064453,570.676331 
	C910.064453,542.877869 910.064453,515.175171 910.064453,487.236145 
	C914.272400,487.236145 918.356689,487.236145 922.999939,487.236145 
	C922.999939,491.645111 922.999939,496.076508 922.999939,501.006317 
z"/>
<path fill="#00000000" opacity="1.000000" stroke="none" 
	d="
M747.760620,521.427734 
	C744.070801,523.188416 740.564880,524.584412 736.195679,526.324036 
	C736.195679,516.392334 736.195679,508.002838 736.195679,499.568390 
	C746.036133,497.570251 748.949036,499.777649 748.857056,509.700653 
	C748.821899,513.490601 748.264099,517.275757 747.760620,521.427734 
z"/>
<path fill="#00000000" opacity="1.000000" stroke="none" 
	d="
M1449.041992,554.372681 
	C1447.998535,559.048645 1445.020264,560.399353 1441.115112,559.788818 
	C1437.110596,559.162720 1435.816040,556.227966 1435.815796,552.509460 
	C1435.814697,536.879395 1435.741089,521.248840 1435.849976,505.619507 
	C1435.885864,500.471222 1438.208130,498.083801 1442.474731,498.063599 
	C1446.736816,498.043427 1449.128296,500.438263 1449.155273,505.554443 
	C1449.240234,521.681213 1449.128296,537.809082 1449.041992,554.372681 
z"/>
<path fill="#00000000" opacity="1.000000" stroke="none" 
	d="
M664.094727,537.997253 
	C664.094788,527.843811 664.090881,518.189697 664.099304,508.535614 
	C664.100464,507.204956 664.053223,505.860748 664.216858,504.546295 
	C664.711182,500.576782 666.725159,498.063110 670.997864,498.058075 
	C675.271057,498.053040 677.690613,500.558929 677.734924,504.529480 
	C677.916992,520.837524 677.916565,537.149841 677.736450,553.457886 
	C677.692688,557.424011 675.290649,559.943726 671.013489,559.945618 
	C666.741821,559.947449 664.502869,557.452087 664.261963,553.470215 
	C663.960876,548.493896 664.129089,543.489136 664.094727,537.997253 
z"/>
<path fill="#00000000" opacity="1.000000" stroke="none" 
	d="
M1365.094604,534.999512 
	C1365.094604,525.844360 1365.090210,517.189026 1365.099121,508.533691 
	C1365.100464,507.203064 1365.053101,505.858795 1365.216919,504.544403 
	C1365.711792,500.574768 1367.727295,498.062134 1371.999634,498.058075 
	C1376.272949,498.053986 1378.690918,500.560852 1378.735107,504.531219 
	C1378.916992,520.839172 1378.916870,537.151428 1378.736450,553.459351 
	C1378.692505,557.425354 1376.289307,559.944519 1372.012207,559.945618 
	C1367.740479,559.946716 1365.463623,557.449890 1365.265991,553.469543 
	C1364.969116,547.491394 1365.129028,541.490540 1365.094604,534.999512 
z"/>
</svg>
