<svg version="1.1" id="Layer_1" xmlns="http://www.w3.org/2000/svg" xmlns:xlink="http://www.w3.org/1999/xlink" x="0px" y="0px"
	 width="100%" viewBox="0 0 1024 576" enable-background="new 0 0 1024 576" xml:space="preserve">
<path fill="#ffffffaa" opacity="1.000000" stroke="none" 
	d="
M664.082764,217.650208 
	C676.730103,217.649979 688.890503,217.629745 701.050720,217.655853 
	C717.280701,217.690689 726.302612,226.685150 726.330444,243.018448 
	C726.382690,273.669006 726.380188,304.319763 726.333557,334.970306 
	C726.310181,350.331116 717.153198,359.360504 701.767639,359.364471 
	C688.108093,359.367981 674.447021,359.233673 660.789978,359.415985 
	C656.345276,359.475342 654.577759,358.074554 654.591248,353.413666 
	C654.715515,310.436523 654.650024,267.458832 654.680237,224.481339 
	C654.684875,217.854050 655.015503,217.674026 664.082764,217.650208 
M679.361389,243.973953 
	C679.357300,248.967926 679.349976,253.961899 679.349731,258.955872 
	C679.348572,282.927002 679.468506,306.899200 679.247253,330.868286 
	C679.203979,335.562408 680.690613,337.150360 685.235657,336.709290 
	C688.535095,336.389099 691.923950,336.921539 695.207886,336.529144 
	C699.223816,336.049255 702.651245,334.513641 702.648132,329.492126 
	C702.631226,302.191711 702.618225,274.891235 702.679688,247.590973 
	C702.686707,244.468246 701.253235,242.328781 698.584106,241.400345 
	C692.792114,239.385651 686.772034,240.374313 680.837830,240.748047 
	C679.739380,240.817230 679.474060,242.056824 679.361389,243.973953 
z"/>
<path fill="#ffffffaa" opacity="1.000000" stroke="none" 
	d="
M182.983765,284.730591 
	C192.346786,288.097992 192.348755,288.097992 192.346207,297.643494 
	C192.342880,310.141083 192.352005,322.638672 192.326721,335.136230 
	C192.294724,350.957245 183.805466,359.372894 167.915848,359.371460 
	C160.750565,359.370819 153.584702,359.304108 146.420120,359.372681 
	C130.300125,359.526978 123.094391,350.627655 121.762177,336.053589 
	C121.218361,330.104340 121.686378,324.064178 121.661041,318.065491 
	C121.645866,314.473450 122.974815,312.455933 126.982269,312.621887 
	C131.806427,312.821655 136.646011,312.735413 141.476883,312.653687 
	C144.205444,312.607513 145.449341,313.728668 145.347778,316.502472 
	C145.250305,319.164703 145.596497,321.862518 145.301147,324.494568 
	C144.385773,332.652405 148.536285,337.777069 157.755325,336.672638 
	C158.906860,336.534698 160.097107,336.723785 161.249756,336.590881 
	C165.966629,336.046875 168.610764,333.107117 168.643707,328.318726 
	C168.687271,321.986877 168.566315,315.652771 168.695892,309.323273 
	C168.752701,306.547913 167.691772,305.093536 165.029205,304.254608 
	C153.648666,300.668854 142.364059,296.772583 130.947464,293.309387 
	C123.700356,291.110992 121.664963,288.888702 121.655769,281.358978 
	C121.639893,268.361481 121.436905,255.359009 121.737328,242.368439 
	C121.908165,234.980972 123.406731,227.951294 129.830292,222.840240 
	C132.955719,220.353409 136.283218,218.311279 140.049210,218.125351 
	C151.980072,217.536240 164.027679,216.323120 175.834442,218.721664 
	C186.150848,220.817444 191.942337,228.409775 192.285385,239.043427 
	C192.510941,246.034637 192.221191,253.041260 192.362427,260.036926 
	C192.427536,263.262329 191.212112,264.512177 187.978577,264.405090 
	C182.818512,264.234192 177.648285,264.299133 172.483658,264.365173 
	C169.738266,264.400299 168.587677,263.204224 168.650604,260.460602 
	C168.746078,256.297180 168.575302,252.127396 168.684830,247.964722 
	C168.746811,245.608231 168.159271,243.609329 166.169464,242.328995 
	C161.097305,239.065308 155.572372,239.674301 150.357803,241.463074 
	C145.731781,243.049957 145.069016,247.217117 145.285522,251.744614 
	C145.555832,257.397339 145.439758,263.074554 145.318390,268.737457 
	C145.259018,271.507446 146.321259,272.902344 149.018723,273.747681 
	C160.247330,277.266510 171.410629,280.993713 182.983765,284.730591 
z"/>
<path fill="#ffffffaa" opacity="1.000000" stroke="none" 
	d="
M541.780701,265.340210 
	C537.969482,265.340027 534.630737,265.214600 531.304321,265.363403 
	C526.686401,265.569977 524.469604,263.598511 524.636841,258.888885 
	C524.760925,255.393494 524.654907,251.889938 524.651306,248.390015 
	C524.649780,246.886063 524.590210,245.413971 523.876099,244.012924 
	C521.687561,239.719177 515.148804,239.802094 507.718048,240.759048 
	C503.271301,241.331711 501.330109,244.396271 501.337097,248.885361 
	C501.378235,275.384735 501.322662,301.884277 501.388000,328.383545 
	C501.400909,333.617065 504.210205,336.332275 509.354797,336.635925 
	C523.471680,337.469177 524.650574,336.360229 524.655701,322.242371 
	C524.659180,312.656097 524.659180,312.656097 534.168457,312.650330 
	C548.351318,312.641693 548.436279,312.642456 548.303772,326.686005 
	C548.257019,331.648590 548.927917,336.632812 547.677979,341.588226 
	C544.996521,352.219177 539.390503,358.392090 528.715576,359.043610 
	C517.318726,359.739197 505.754791,360.480682 494.368286,358.411194 
	C484.822327,356.676208 477.771423,348.613373 477.725708,338.878662 
	C477.567627,305.213470 477.570129,271.546661 477.721497,237.881454 
	C477.763489,228.542770 484.402710,220.390869 493.670898,218.780960 
	C506.157806,216.611969 518.896790,216.559189 531.343323,218.706818 
	C542.038147,220.552155 548.204285,229.210831 548.327332,240.162933 
	C548.398438,246.495285 548.110046,252.839676 548.405945,259.158875 
	C548.623901,263.813141 546.612671,265.570221 541.780701,265.340210 
z"/>
<path fill="#ffffffaa" opacity="1.000000" stroke="none" 
	d="
M833.651245,239.234543 
	C834.395447,226.977005 840.284607,219.501694 852.562439,218.124115 
	C863.412048,216.906754 874.634827,216.824371 885.459839,218.147537 
	C898.239258,219.709625 903.281006,228.881744 904.253540,242.015244 
	C904.707581,248.146729 904.231812,254.342178 904.354919,260.505096 
	C904.418945,263.711548 902.831421,265.171478 899.908936,265.247437 
	C895.080261,265.372955 890.244080,265.380219 885.415283,265.262909 
	C882.141235,265.183411 880.729919,263.112183 880.688599,260.011688 
	C880.642029,256.512909 880.670166,253.013184 880.653870,249.513931 
	C880.648499,248.348251 880.765625,247.152924 880.553589,246.022369 
	C879.675232,241.338913 874.542725,239.481552 864.713440,240.440735 
	C860.489807,240.852905 857.377441,242.800888 857.372009,247.593994 
	C857.341431,274.755585 857.355652,301.917267 857.359619,329.078918 
	C857.359680,329.744141 857.320496,330.431213 857.464355,331.071075 
	C858.474487,335.565186 863.947266,337.515259 872.954956,336.622742 
	C877.514771,336.170929 880.531677,333.286591 880.630676,329.113770 
	C880.721558,325.283142 880.744080,321.446991 880.647217,317.617004 
	C880.565002,314.369110 881.720825,312.579895 885.246643,312.654022 
	C890.076782,312.755585 894.910950,312.703857 899.742981,312.663971 
	C902.462341,312.641510 904.344727,313.524994 904.300354,316.602753 
	C904.175964,325.230347 905.055725,333.898407 903.140015,342.453033 
	C900.878723,352.550751 892.678345,359.220184 882.014648,359.344391 
	C873.184204,359.447235 864.351135,359.410919 855.519897,359.346954 
	C842.662231,359.253815 833.684082,350.191132 833.666260,337.186218 
	C833.621704,304.692230 833.650757,272.198181 833.651245,239.234543 
z"/>
<path fill="#ffffffaa" opacity="1.000000" stroke="none" 
	d="
M307.605225,354.557190 
	C302.202637,349.485901 299.853302,343.422913 299.685364,336.519226 
	C299.535553,330.359070 299.771851,324.189362 299.612396,318.029694 
	C299.514832,314.259430 300.864777,312.461731 304.820801,312.627045 
	C309.144562,312.807770 313.481659,312.667419 317.812927,312.671509 
	C321.480591,312.674988 323.350922,314.463135 323.336151,318.182922 
	C323.320953,322.014313 323.397644,325.846497 323.349579,329.677277 
	C323.302429,333.432007 325.123718,335.654907 328.750000,336.286285 
	C332.708099,336.975433 336.780792,337.110321 340.667694,336.318329 
	C345.316101,335.371155 346.700043,331.824249 346.689087,327.286530 
	C346.615631,296.800781 346.656769,266.314758 346.660889,235.828842 
	C346.661499,231.330933 346.796539,226.827774 346.620087,222.336838 
	C346.488647,218.990463 347.578003,217.437851 351.158417,217.604340 
	C355.812958,217.820816 360.490356,217.801682 365.147766,217.621460 
	C369.074310,217.469543 370.451874,219.175308 370.383606,222.985962 
	C370.231506,231.479233 370.346069,239.977234 370.346649,248.473297 
	C370.348541,276.793549 370.354980,305.113831 370.346069,333.434082 
	C370.340546,350.976471 361.915741,359.368469 344.342712,359.370209 
	C337.512543,359.370880 330.681030,359.283264 323.852570,359.391144 
	C318.033325,359.483093 312.698181,358.117493 307.605225,354.557190 
z"/>
</svg>
